<?xml version="1.0" standalone="no"?>
<!DOCTYPE svg PUBLIC "-//W3C//DTD SVG 20010904//EN"
 "http://www.w3.org/TR/2001/REC-SVG-20010904/DTD/svg10.dtd">
<svg version="1.0" xmlns="http://www.w3.org/2000/svg"
 width="384.000000pt" height="384.000000pt" viewBox="0 0 384.000000 384.000000"
 preserveAspectRatio="xMidYMid meet">
<metadata>
Created by potrace 1.14, written by Peter Selinger 2001-2017
</metadata>
<g transform="translate(0.000000,384.000000) scale(0.100000,-0.100000)"
fill="#000000" stroke="none">
<path d="M1758 3768 c-68 -39 -139 -80 -158 -91 -157 -88 -440 -253 -462 -268
-15 -11 -29 -19 -31 -19 -3 0 -60 -32 -128 -72 -68 -39 -137 -79 -154 -88 -32
-18 -338 -195 -395 -228 -19 -11 -53 -30 -75 -42 -54 -30 -85 -59 -101 -97
-21 -48 -21 -1838 0 -1886 18 -42 44 -64 141 -119 44 -25 96 -55 115 -65 38
-22 575 -333 863 -500 98 -57 183 -103 188 -103 5 0 9 -4 9 -10 0 -5 4 -10 9
-10 5 0 59 -29 121 -65 62 -36 116 -65 121 -65 5 0 9 -4 9 -9 0 -14 88 -34
122 -27 17 3 122 59 232 122 111 64 215 124 231 134 52 30 427 246 485 279 30
17 62 36 70 41 8 5 53 31 100 57 446 256 483 278 509 317 l26 40 2 918 1 918
-21 42 c-19 37 -39 53 -152 120 -71 42 -141 83 -155 90 -14 7 -69 39 -123 71
-54 31 -100 57 -103 57 -2 0 -32 17 -66 38 -35 22 -277 162 -538 312 -421 243
-480 274 -522 276 -42 2 -60 -5 -170 -68z m232 29 c25 -13 104 -57 175 -99 72
-42 231 -134 355 -205 921 -528 1028 -593 1047 -631 17 -35 18 -84 18 -947 -1
-883 -1 -911 -20 -943 -14 -23 -53 -52 -135 -99 -107 -62 -246 -142 -280 -163
-8 -5 -85 -49 -170 -98 -85 -49 -301 -174 -480 -277 -179 -103 -341 -196 -360
-207 -19 -11 -65 -38 -101 -60 -85 -50 -125 -54 -192 -19 -29 15 -304 172
-612 350 -308 178 -634 367 -725 419 -91 52 -177 103 -191 113 -59 41 -57 0
-55 1001 1 900 1 917 21 943 15 20 483 305 501 305 1 0 38 21 81 46 43 26 93
55 111 66 56 31 284 163 338 195 27 17 70 41 95 55 96 55 127 73 275 159 226
132 230 134 304 96z"/>
<path d="M1850 3692 c-31 -17 -95 -53 -195 -112 -84 -49 -285 -166 -325 -188
-25 -14 -173 -100 -330 -190 -327 -189 -456 -264 -520 -300 -74 -41 -99 -62
-117 -95 -16 -29 -17 -105 -18 -887 -2 -898 -2 -892 42 -939 10 -11 61 -44
113 -74 52 -30 151 -86 219 -125 68 -40 124 -72 126 -72 1 0 55 -31 119 -70
65 -38 119 -70 120 -70 2 0 97 -55 212 -121 115 -67 229 -133 254 -147 25 -14
74 -42 109 -64 34 -21 64 -38 65 -38 2 0 38 -20 82 -45 117 -67 123 -66 345
60 101 58 191 109 199 114 14 9 362 211 464 270 249 143 376 216 401 231 17
10 78 45 137 79 79 46 113 72 130 99 l23 37 0 860 c0 1011 13 909 -127 992
-47 28 -106 62 -130 76 -23 13 -101 58 -173 99 -71 42 -146 85 -165 96 -35 19
-268 154 -575 332 -88 51 -185 106 -215 123 -30 17 -73 42 -95 55 -53 34 -127
39 -175 14z"/>
</g>
</svg>
